<mxfile host="app.diagrams.net" modified="2024-05-27T10:57:27.842Z" agent="Mozilla/5.0 (Macintosh; Intel Mac OS X 10_15_7) AppleWebKit/605.1.15 (KHTML, like Gecko) Version/17.0 Safari/605.1.15" version="24.4.8" etag="TTGHmL9qNgdAd1_T45FQ" type="github">
  <diagram name="Page-1" id="0EhpC3gxMBU1NIHlYczA">
    <mxGraphModel>
      <root>
        <mxCell id="0" />
        <mxCell id="1" parent="0" />
      </root>
    </mxGraphModel>
  </diagram>
</mxfile>
